<svg width="64" height="64" viewBox="0 0 64 64" fill="none" xmlns="http://www.w3.org/2000/svg">
<rect x="8" y="8" width="48" height="48" rx="24" fill="#0178BC" fill-opacity="0.13"/>
<rect x="4" y="4" width="56" height="56" rx="28" stroke="#0178BC" stroke-opacity="0.06" stroke-width="8"/>
<path fill-rule="evenodd" clip-rule="evenodd" d="M37.404 35.7685C37.309 34.701 37.117 33.741 36.689 33.018L38.2145 31.4925C38.9991 31.4416 39.7324 31.0848 40.2565 30.4988C40.7807 29.9128 41.0538 29.1444 41.0172 28.359C40.9806 27.5736 40.6371 26.834 40.0606 26.2993C39.4842 25.7646 38.7209 25.4776 37.935 25.5C37.558 24.0815 35.604 23 33.25 23C31.168 23 29.3985 23.846 28.7575 25.0235C26.919 25.2005 25.5 26.3535 25.5 27.75C25.5 29.269 27.179 30.5 29.25 30.5C30.2465 30.5 31.152 30.215 31.824 29.75C32.137 30.33 32.4886 30.8882 32.8765 31.421C33.2805 31.971 33.7715 32.541 34.3235 32.9785C34.792 33.349 35.338 33.6505 35.9365 33.7305C36.1805 34.2435 36.3275 34.9505 36.4075 35.857C36.5 36.8925 36.5 38.118 36.5 39.5V40H37.5V39.4825C37.5 38.121 37.5 36.8525 37.404 35.7685ZM36.009 28.692C35.9954 28.5485 35.9509 28.4096 35.8785 28.2848C35.8062 28.1601 35.7077 28.0525 35.5899 27.9694C35.472 27.8862 35.3376 27.8296 35.1959 27.8033C35.0541 27.777 34.9083 27.7817 34.7685 27.817C34.2718 27.9402 33.7618 28.0017 33.25 28C33.061 28 32.8755 27.992 32.6945 27.9765C32.5175 27.9614 32.3396 27.9938 32.1792 28.0702C32.0189 28.1467 31.8817 28.2645 31.782 28.4115C31.397 28.98 30.475 29.5 29.25 29.5C28.405 29.5 27.68 29.2475 27.19 28.888C26.699 28.528 26.5 28.1145 26.5 27.75C26.5 27.102 27.2565 26.1725 28.853 26.019C29.0158 26.0034 29.1722 25.9481 29.3086 25.8579C29.445 25.7678 29.5573 25.6456 29.6355 25.502C30.03 24.7775 31.355 24 33.25 24C34.2815 24 35.1915 24.238 35.859 24.598C36.541 24.966 36.874 25.403 36.968 25.757C37.0255 25.9738 37.1541 26.1649 37.3333 26.2998C37.5125 26.4346 37.7318 26.5053 37.956 26.5005L38 26.5C38.3187 26.5001 38.6328 26.5763 38.9161 26.7224C39.1994 26.8684 39.4437 27.0801 39.6286 27.3397C39.8135 27.5993 39.9337 27.8993 39.9791 28.2148C40.0246 28.5303 39.9939 28.852 39.8898 29.1533C39.7857 29.4545 39.6111 29.7265 39.3806 29.9466C39.1501 30.1667 38.8703 30.3285 38.5645 30.4185C38.2588 30.5086 37.9359 30.5242 37.6229 30.4642C37.3099 30.4042 37.0158 30.2702 36.765 30.0735L36.597 29.9255C36.2617 29.5965 36.0534 29.1596 36.009 28.692ZM35.459 30.0955C35.2104 29.6999 35.0579 29.2516 35.0135 28.7865C34.6995 28.866 34.369 28.9245 34.026 28.96C33.5553 29.0088 33.081 29.0132 32.6095 28.973C32.5972 28.9912 32.5847 29.0092 32.572 29.027C32.626 29.131 32.697 29.265 32.784 29.4205C33.0698 29.935 33.3885 30.4305 33.738 30.904V30.831C34.2905 30.831 34.8705 30.5325 35.3515 30.177C35.3885 30.15 35.4245 30.123 35.459 30.0955ZM34.4425 31.7375C34.6055 31.9045 34.7725 32.059 34.944 32.1945C35.1905 32.3895 35.431 32.5355 35.664 32.6295L36.9735 31.3195C36.6671 31.2078 36.381 31.0469 36.1265 30.843C36.069 30.889 36.0085 30.9355 35.9455 30.982C35.5575 31.268 35.0345 31.5845 34.4425 31.7375Z" fill="#0DA0EA"/>
<path fill-rule="evenodd" clip-rule="evenodd" d="M29.001 32.7502C29.0011 32.9144 28.969 33.0769 28.9063 33.2287C28.8436 33.3804 28.7517 33.5183 28.6357 33.6345C28.5198 33.7507 28.3821 33.8429 28.2305 33.9058C28.0789 33.9688 27.9164 34.0013 27.7522 34.0015C27.5881 34.0016 27.4255 33.9695 27.2738 33.9068C27.1221 33.8441 26.9842 33.7522 26.868 33.6362C26.7518 33.5203 26.6596 33.3826 26.5966 33.231C26.5336 33.0794 26.5011 32.9169 26.501 32.7527C26.5006 32.4212 26.632 32.1031 26.8662 31.8685C27.1004 31.6338 27.4182 31.5018 27.7497 31.5015C28.0812 31.5011 28.3993 31.6325 28.634 31.8667C28.8686 32.1009 29.0006 32.4187 29.001 32.7502ZM28.001 32.7512C28.001 32.784 27.9946 32.8166 27.982 32.8469C27.9695 32.8772 27.9511 32.9048 27.9279 32.9281C27.9047 32.9513 27.8772 32.9697 27.8469 32.9823C27.8166 32.9949 27.7841 33.0014 27.7512 33.0015C27.7184 33.0015 27.6859 32.9951 27.6555 32.9825C27.6252 32.97 27.5976 32.9516 27.5744 32.9284C27.5511 32.9052 27.5327 32.8777 27.5201 32.8474C27.5075 32.817 27.501 32.7845 27.501 32.7517C27.5009 32.6854 27.5272 32.6218 27.574 32.5749C27.6209 32.5279 27.6844 32.5015 27.7507 32.5015C27.817 32.5014 27.8806 32.5277 27.9276 32.5745C27.9745 32.6213 28.0009 32.6849 28.001 32.7512ZM25.501 34.7502C25.5011 34.9144 25.469 35.0769 25.4063 35.2287C25.3436 35.3804 25.2517 35.5183 25.1357 35.6345C25.0198 35.7507 24.8821 35.8429 24.7305 35.9058C24.5789 35.9688 24.4164 36.0013 24.2522 36.0015C24.0881 36.0016 23.9255 35.9695 23.7738 35.9068C23.6221 35.8441 23.4842 35.7522 23.368 35.6362C23.2518 35.5203 23.1596 35.3826 23.0966 35.231C23.0336 35.0794 23.0011 34.9169 23.001 34.7527C23.0006 34.4212 23.132 34.1031 23.3662 33.8685C23.6004 33.6338 23.9182 33.5018 24.2497 33.5015C24.5812 33.5011 24.8993 33.6325 25.134 33.8667C25.3686 34.1009 25.5006 34.4187 25.501 34.7502ZM24.501 34.7512C24.501 34.8175 24.4746 34.8811 24.4278 34.928C24.3809 34.9749 24.3173 35.0012 24.251 35.0012C24.1847 35.0012 24.1211 34.9749 24.0742 34.928C24.0273 34.8811 24.001 34.8175 24.001 34.7512C24.001 34.6849 24.0273 34.6213 24.0742 34.5744C24.1211 34.5276 24.1847 34.5012 24.251 34.5012C24.3173 34.5012 24.3809 34.5276 24.4278 34.5744C24.4746 34.6213 24.501 34.6849 24.501 34.7512ZM32.752 36.0012C33.0835 36.0009 33.4013 35.869 33.6356 35.6344C33.8698 35.3998 34.0012 35.0817 34.001 34.7502C34.0007 34.4187 33.8688 34.1009 33.6342 33.8666C33.3995 33.6324 33.0815 33.501 32.75 33.5012C32.4185 33.5015 32.1006 33.6334 31.8664 33.868C31.6322 34.1026 31.5007 34.4207 31.501 34.7522C31.5012 35.0837 31.6332 35.4016 31.8678 35.6358C32.1024 35.87 32.4205 36.0015 32.752 36.0012ZM32.751 35.0012C32.8173 35.0012 32.8809 34.9749 32.9278 34.928C32.9746 34.8811 33.001 34.8175 33.001 34.7512C33.001 34.6849 32.9746 34.6213 32.9278 34.5744C32.8809 34.5276 32.8173 34.5012 32.751 34.5012C32.6847 34.5012 32.6211 34.5276 32.5742 34.5744C32.5273 34.6213 32.501 34.6849 32.501 34.7512C32.501 34.8175 32.5273 34.8811 32.5742 34.928C32.6211 34.9749 32.6847 35.0012 32.751 35.0012Z" fill="#0DA0EA"/>
<path d="M27.5 34.5C27.7652 34.5 28.0196 34.6054 28.2071 34.7929C28.3946 34.9804 28.5 35.2348 28.5 35.5V36.5H29.5C29.7652 36.5 30.0196 36.6054 30.2071 36.7929C30.3946 36.9804 30.5 37.2348 30.5 37.5C30.5 37.7652 30.3946 38.0196 30.2071 38.2071C30.0196 38.3946 29.7652 38.5 29.5 38.5H27.5C27.2348 38.5 26.9804 38.3946 26.7929 38.2071C26.6054 38.0196 26.5 37.7652 26.5 37.5V35.5C26.5 35.2348 26.6054 34.9804 26.7929 34.7929C26.9804 34.6054 27.2348 34.5 27.5 34.5ZM25 37.5C25 37.2348 24.8946 36.9804 24.7071 36.7929C24.5196 36.6054 24.2652 36.5 24 36.5C23.7348 36.5 23.4804 36.6054 23.2929 36.7929C23.1054 36.9804 23 37.2348 23 37.5V40C23 40.2652 23.1054 40.5196 23.2929 40.7071C23.4804 40.8946 23.7348 41 24 41H26C26.2652 41 26.5196 40.8946 26.7071 40.7071C26.8946 40.5196 27 40.2652 27 40C27 39.7348 26.8946 39.4804 26.7071 39.2929C26.5196 39.1054 26.2652 39 26 39H25V37.5ZM33 36.5C32.7348 36.5 32.4804 36.6054 32.2929 36.7929C32.1054 36.9804 32 37.2348 32 37.5V39H31C30.7348 39 30.4804 39.1054 30.2929 39.2929C30.1054 39.4804 30 39.7348 30 40C30 40.2652 30.1054 40.5196 30.2929 40.7071C30.4804 40.8946 30.7348 41 31 41H33C33.2652 41 33.5196 40.8946 33.7071 40.7071C33.8946 40.5196 34 40.2652 34 40V37.5C34 37.2348 33.8946 36.9804 33.7071 36.7929C33.5196 36.6054 33.2652 36.5 33 36.5Z" fill="#0DA0EA"/>
</svg>
