<svg width="64" height="64" viewBox="0 0 64 64" fill="none" xmlns="http://www.w3.org/2000/svg">
<rect x="8" y="8" width="48" height="48" rx="24" fill="#0178BC" fill-opacity="0.13"/>
<rect x="4" y="4" width="56" height="56" rx="28" stroke="#0178BC" stroke-opacity="0.06" stroke-width="8"/>
<path d="M31.25 34C31.0511 34 30.8603 33.921 30.7197 33.7803C30.579 33.6397 30.5 33.4489 30.5 33.25C30.5 33.0511 30.579 32.8603 30.7197 32.7197C30.8603 32.579 31.0511 32.5 31.25 32.5C31.4489 32.5 31.6397 32.579 31.7803 32.7197C31.921 32.8603 32 33.0511 32 33.25C32 33.4489 31.921 33.6397 31.7803 33.7803C31.6397 33.921 31.4489 34 31.25 34Z" fill="#0DA0EA"/>
<path fill-rule="evenodd" clip-rule="evenodd" d="M24.7145 30C24.8115 30 24.907 29.992 25 29.976V34H23.75C23.6837 34 23.6201 34.0263 23.5732 34.0732C23.5263 34.1201 23.5 34.1837 23.5 34.25V34.75C23.5 34.8163 23.5263 34.8799 23.5732 34.9268C23.6201 34.9737 23.6837 35 23.75 35H40.25C40.3163 35 40.3799 34.9737 40.4268 34.9268C40.4737 34.8799 40.5 34.8163 40.5 34.75V34.25C40.5 34.1837 40.4737 34.1201 40.4268 34.0732C40.3799 34.0263 40.3163 34 40.25 34H39V29.976C39.093 29.992 39.1885 30 39.2855 30C40.2365 30 41 29.224 41 28.2755V27.0805C41 26.9219 40.9725 26.7646 40.9185 26.6155L39.8285 23.6105C39.7638 23.4316 39.6456 23.2771 39.4899 23.1678C39.3343 23.0586 39.1487 23 38.9585 23H25.041C24.8509 23.0002 24.6655 23.059 24.51 23.1683C24.3546 23.2776 24.2365 23.4322 24.172 23.611L23.082 26.6155C23.0278 26.7646 23.0001 26.9219 23 27.0805V28.2755C23 29.224 23.7635 30 24.7145 30ZM24.022 26.9565L25.0945 24H38.905L39.9775 26.9565C39.9925 26.9965 39.9995 27.038 39.9995 27.0805V28.2755C40.0007 28.4663 39.9261 28.6497 39.7922 28.7856C39.6582 28.9214 39.4758 28.9985 39.285 29C38.895 29 38.571 28.68 38.571 28.2755C38.571 28.1429 38.5183 28.0157 38.4246 27.9219C38.3308 27.8282 38.2036 27.7755 38.071 27.7755C37.9384 27.7755 37.8112 27.8282 37.7174 27.9219C37.6237 28.0157 37.571 28.1429 37.571 28.2755C37.5722 28.4663 37.4976 28.6497 37.3637 28.7856C37.2297 28.9214 37.0473 28.9985 36.8565 29C36.4665 29 36.1425 28.68 36.1425 28.276C36.1425 28.1434 36.0898 28.0162 35.9961 27.9224C35.9023 27.8287 35.7751 27.776 35.6425 27.776C35.5099 27.776 35.3827 27.8287 35.2889 27.9224C35.1952 28.0162 35.1425 28.1434 35.1425 28.276C35.1425 28.68 34.8185 29 34.428 29C34.0375 29 33.714 28.68 33.714 28.2755C33.714 28.1429 33.6613 28.0157 33.5676 27.9219C33.4738 27.8282 33.3466 27.7755 33.214 27.7755C33.0814 27.7755 32.9542 27.8282 32.8604 27.9219C32.7667 28.0157 32.714 28.1429 32.714 28.2755C32.7153 28.4662 32.6409 28.6497 32.507 28.7856C32.3731 28.9214 32.1907 28.9985 32 29C31.8093 28.9985 31.627 28.9215 31.493 28.7858C31.3591 28.65 31.2844 28.4667 31.2855 28.276C31.2855 28.1434 31.2328 28.0162 31.1391 27.9224C31.0453 27.8287 30.9181 27.776 30.7855 27.776C30.6529 27.776 30.5257 27.8287 30.4319 27.9224C30.3382 28.0162 30.2855 28.1434 30.2855 28.276C30.2855 28.68 29.962 29 29.5715 29C29.181 29 28.857 28.68 28.857 28.2755C28.857 28.1429 28.8043 28.0157 28.7106 27.9219C28.6168 27.8282 28.4896 27.7755 28.357 27.7755C28.2244 27.7755 28.0972 27.8282 28.0034 27.9219C27.9097 28.0157 27.857 28.1429 27.857 28.2755C27.857 28.6795 27.5335 29 27.143 29C26.7525 29 26.4285 28.68 26.4285 28.2755C26.4285 28.1429 26.3758 28.0157 26.2821 27.9219C26.1883 27.8282 26.0611 27.7755 25.9285 27.7755C25.7959 27.7755 25.6687 27.8282 25.5749 27.9219C25.4812 28.0157 25.4285 28.1429 25.4285 28.2755C25.4285 28.6795 25.105 29 24.7145 29C24.3235 29 24 28.68 24 28.2755V27.0805C24 27.0382 24.0074 26.9962 24.022 26.9565ZM38 29.561C37.6867 29.8442 37.2793 30.0007 36.857 30C36.6311 30.0003 36.4075 29.9556 36.199 29.8685C35.9906 29.7815 35.8016 29.6538 35.643 29.493C35.4844 29.6539 35.2953 29.7816 35.0867 29.8686C34.8782 29.9557 34.6545 30.0003 34.4285 30C34.2026 30.0003 33.979 29.9556 33.7705 29.8685C33.5621 29.7815 33.3731 29.6538 33.2145 29.493C33.0559 29.6539 32.8668 29.7816 32.6582 29.8686C32.4497 29.9557 32.226 30.0003 32 30C31.774 30.0003 31.5503 29.9557 31.3418 29.8686C31.1332 29.7816 30.9441 29.6539 30.7855 29.493C30.6269 29.6538 30.4379 29.7815 30.2295 29.8685C30.021 29.9556 29.7974 30.0003 29.5715 30C29.096 30 28.6665 29.8055 28.357 29.493C28.1984 29.6538 28.0094 29.7815 27.801 29.8685C27.5925 29.9556 27.3689 30.0003 27.143 30C26.703 30 26.303 29.8335 26 29.561V34H27.25C27.1837 34 27.1201 33.9737 27.0732 33.9268C27.0263 33.8799 27 33.8163 27 33.75V32.75C27 32.6837 27.0263 32.6201 27.0732 32.5732C27.1201 32.5263 27.1837 32.5 27.25 32.5H28.75C28.8163 32.5 28.8799 32.5263 28.9268 32.5732C28.9737 32.6201 29 32.6837 29 32.75V33H29.75C29.8163 33 29.8799 33.0263 29.9268 33.0732C29.9737 33.1201 30 33.1837 30 33.25V33.75C30 33.8163 29.9737 33.8799 29.9268 33.9268C29.8799 33.9737 29.8163 34 29.75 34H38V29.561ZM24 36.5C24 36.3674 24.0527 36.2402 24.1464 36.1464C24.2402 36.0527 24.3674 36 24.5 36H39.5C39.6326 36 39.7598 36.0527 39.8536 36.1464C39.9473 36.2402 40 36.3674 40 36.5V40.5C40 40.6326 39.9473 40.7598 39.8536 40.8536C39.7598 40.9473 39.6326 41 39.5 41H24.5C24.3674 41 24.2402 40.9473 24.1464 40.8536C24.0527 40.7598 24 40.6326 24 40.5V36.5ZM25 40V37H39V40H25Z" fill="#0DA0EA"/>
</svg>
