<svg width="64" height="64" viewBox="0 0 64 64" fill="none" xmlns="http://www.w3.org/2000/svg">
<rect x="8" y="8" width="48" height="48" rx="24" fill="#0178BC" fill-opacity="0.13"/>
<rect x="4" y="4" width="56" height="56" rx="28" stroke="#0178BC" stroke-opacity="0.06" stroke-width="8"/>
<path d="M31 20V23H33V20H31ZM27.88 21.46L26.46 22.87L28.59 25L30 23.58L27.88 21.46ZM36.12 21.46L34 23.58L35.41 25L37.54 22.88L36.12 21.46ZM32 25C31.4696 25 30.9609 25.2107 30.5858 25.5858C30.2107 25.9609 30 26.4696 30 27V28H26.5C25.84 28 25.28 28.42 25.08 29L23 35V43C23 43.2652 23.1054 43.5196 23.2929 43.7071C23.4804 43.8946 23.7348 44 24 44H25C25.2652 44 25.5196 43.8946 25.7071 43.7071C25.8946 43.5196 26 43.2652 26 43V42H38V43C38 43.2652 38.1054 43.5196 38.2929 43.7071C38.4804 43.8946 38.7348 44 39 44H40C40.2652 44 40.5196 43.8946 40.7071 43.7071C40.8946 43.5196 41 43.2652 41 43V35L38.92 29C38.72 28.42 38.16 28 37.5 28H34V27C34 26.4696 33.7893 25.9609 33.4142 25.5858C33.0391 25.2107 32.5304 25 32 25ZM26.5 29.5H37.5L39 34H25L26.5 29.5ZM26.5 36C26.8978 36 27.2794 36.158 27.5607 36.4393C27.842 36.7206 28 37.1022 28 37.5C28 37.8978 27.842 38.2794 27.5607 38.5607C27.2794 38.842 26.8978 39 26.5 39C26.1022 39 25.7206 38.842 25.4393 38.5607C25.158 38.2794 25 37.8978 25 37.5C25 37.1022 25.158 36.7206 25.4393 36.4393C25.7206 36.158 26.1022 36 26.5 36ZM37.5 36C37.8978 36 38.2794 36.158 38.5607 36.4393C38.842 36.7206 39 37.1022 39 37.5C39 37.8978 38.842 38.2794 38.5607 38.5607C38.2794 38.842 37.8978 39 37.5 39C37.1022 39 36.7206 38.842 36.4393 38.5607C36.158 38.2794 36 37.8978 36 37.5C36 37.1022 36.158 36.7206 36.4393 36.4393C36.7206 36.158 37.1022 36 37.5 36Z" fill="#0DA0EA"/>
</svg>
