<svg width="25" height="25" viewBox="0 0 25 25" fill="none" xmlns="http://www.w3.org/2000/svg">
<g clip-path="url(#clip0_984_3387)">
<path d="M13.564 7.18494L14.309 6.87894C14.914 6.63894 15.696 6.39394 16.619 6.54894C18.51 6.86694 19.814 7.88794 20.591 9.24194C20.891 9.76394 20.649 10.4519 20.089 10.6709C19.6092 10.8586 19.1991 11.1898 18.9147 11.6194C18.6304 12.0489 18.4855 12.5558 18.5001 13.0707C18.5146 13.5857 18.6879 14.0836 18.996 14.4963C19.3042 14.9091 19.7324 15.2167 20.222 15.3769C20.74 15.5469 21.032 16.1219 20.862 16.6399C20.42 17.9819 19.784 19.2209 19.031 20.2209C18.287 21.2089 17.379 22.0289 16.368 22.4299C15.708 22.6899 15 22.5929 14.323 22.4249L13.921 22.3179L13.324 22.1449C13.053 22.0659 12.774 21.9979 12.5 21.9979C12.225 21.9979 11.947 22.0659 11.676 22.1449L11.079 22.3179L10.677 22.4249C9.99996 22.5929 9.29096 22.6909 8.63196 22.4299C7.35896 21.9259 6.23596 20.7499 5.38696 19.3629C4.46783 17.8356 3.86141 16.1407 3.60296 14.3769C3.37596 12.8229 3.49896 11.0779 4.21796 9.60194C4.95796 8.08094 6.31396 6.89694 8.38096 6.54894C9.22096 6.40794 9.94296 6.59694 10.521 6.81394L10.852 6.94394L11.436 7.18494C11.836 7.34194 12.151 7.43394 12.5 7.43394C12.848 7.43394 13.164 7.34194 13.564 7.18494ZM12.268 3.26794C13.244 2.29094 14.743 2.20694 15.096 2.56094C15.45 2.91394 15.366 4.41294 14.389 5.38894C13.413 6.36494 11.914 6.44894 11.561 6.09594C11.207 5.74294 11.291 4.24394 12.268 3.26794Z" fill="#065686"/>
</g>
<defs>
<clipPath id="clip0_984_3387">
<rect width="24" height="24" fill="white" transform="translate(0.5 0.5)"/>
</clipPath>
</defs>
</svg>
