<svg width="25" height="25" viewBox="0 0 25 25" fill="none" xmlns="http://www.w3.org/2000/svg">
<path d="M2.75 3.28873V21.7106C2.75012 21.7506 2.76204 21.7896 2.78427 21.8228C2.80649 21.8561 2.83803 21.882 2.87492 21.8973C2.91182 21.9127 2.95243 21.9168 2.99166 21.9092C3.0309 21.9016 3.06701 21.8826 3.09547 21.8545L12.6875 12.5001L3.09547 3.14483C3.06701 3.11677 3.0309 3.09773 2.99166 3.09011C2.95243 3.08249 2.91182 3.08663 2.87492 3.102C2.83803 3.11737 2.80649 3.14329 2.78427 3.1765C2.76204 3.20972 2.75012 3.24877 2.75 3.28873ZM16.7094 8.65639L4.68219 2.03014L4.67469 2.02592C4.4675 1.91342 4.27062 2.19373 4.44031 2.35686L13.8683 11.3719L16.7094 8.65639ZM4.44125 22.6434C4.27062 22.8065 4.4675 23.0869 4.67562 22.9744L4.68312 22.9701L16.7094 16.3439L13.8683 13.6275L4.44125 22.6434ZM21.5647 11.3283L18.2061 9.47858L15.0481 12.5001L18.2061 15.5203L21.5647 13.672C22.4783 13.1672 22.4783 11.8331 21.5647 11.3283Z" fill="#065686"/>
</svg>
