<svg width="64" height="64" viewBox="0 0 64 64" fill="none" xmlns="http://www.w3.org/2000/svg">
<rect x="8" y="8" width="48" height="48" rx="24" fill="#0178BC" fill-opacity="0.13"/>
<rect x="4" y="4" width="56" height="56" rx="28" stroke="#0178BC" stroke-opacity="0.06" stroke-width="8"/>
<g clip-path="url(#clip0_939_22997)">
<path d="M30.8651 26.3428C30.7473 26.0081 30.5286 25.7182 30.239 25.5131C29.9495 25.308 29.6034 25.1978 29.2486 25.1977H27.92C27.5431 25.1987 27.1798 25.3388 26.8998 25.591C26.6197 25.8433 26.4426 26.19 26.4022 26.5647C26.3619 26.9394 26.4612 27.3159 26.6812 27.6219C26.9011 27.928 27.2262 28.1421 27.5943 28.2234L29.6137 28.6657C30.0269 28.7559 30.3922 28.9956 30.6393 29.3389C30.8865 29.6821 30.998 30.1045 30.9525 30.525C30.907 30.9455 30.7076 31.3343 30.3928 31.6167C30.0779 31.8991 29.6698 32.0551 29.2469 32.0548H28.1034C27.749 32.055 27.4032 31.9453 27.1137 31.7408C26.8242 31.5363 26.6052 31.2472 26.4869 30.9131M28.6777 25.1977V23.4834M28.6777 33.7691V32.0548M31.9469 43.1411V34.1411C31.9469 33.5728 32.1726 33.0277 32.5745 32.6259C32.9763 32.224 33.5214 31.9983 34.0897 31.9983C34.658 31.9983 35.2031 32.224 35.6049 32.6259C36.0068 33.0277 36.2326 33.5728 36.2326 34.1411V38.8554H39.6611C40.5705 38.8554 41.4425 39.2166 42.0855 39.8596C42.7285 40.5026 43.0897 41.3747 43.0897 42.284V43.1411" stroke="#0DA0EA" stroke-width="1.71429" stroke-linecap="round" stroke-linejoin="round"/>
<path d="M28.6794 36.3952C27.0978 36.395 25.5539 35.9119 24.2542 35.0106C22.9545 34.1093 21.9609 32.8328 21.4063 31.3515C20.8517 29.8703 20.7624 28.2551 21.1505 26.7218C21.5386 25.1885 22.3856 23.8103 23.5781 22.7713C24.7706 21.7323 26.2519 21.0822 27.8239 20.9077C29.3959 20.7333 30.9836 21.0429 32.3749 21.7952C33.7662 22.5475 34.8947 23.7066 35.6095 25.1175C36.3242 26.5284 36.5913 28.1239 36.3749 29.6906" stroke="#0DA0EA" stroke-width="1.71429" stroke-linecap="round"/>
</g>
<defs>
<clipPath id="clip0_939_22997">
<rect width="24" height="24" fill="white" transform="translate(20 20)"/>
</clipPath>
</defs>
</svg>
