<svg width="64" height="64" viewBox="0 0 64 64" fill="none" xmlns="http://www.w3.org/2000/svg">
<rect x="8" y="8" width="48" height="48" rx="24" fill="#0178BC" fill-opacity="0.13"/>
<rect x="4" y="4" width="56" height="56" rx="28" stroke="#0178BC" stroke-opacity="0.06" stroke-width="8"/>
<path d="M28 26V38M32 32H24M40 27L37 32H41L38 37M24 26.28V37.72C24 37.872 24.0347 38.022 24.1013 38.1586C24.168 38.2952 24.265 38.4148 24.3848 38.5083C24.5046 38.6019 24.6442 38.6668 24.7929 38.6983C24.9416 38.7298 25.0956 38.7269 25.243 38.69L31.243 37.19C31.4592 37.1358 31.6512 37.011 31.7883 36.8352C31.9255 36.6595 32 36.4429 32 36.22V27.78C32 27.5571 31.9255 27.3405 31.7883 27.1648C31.6512 26.9891 31.4592 26.8642 31.243 26.81L25.243 25.31C25.0956 25.2731 24.9416 25.2702 24.7929 25.3017C24.6442 25.3332 24.5046 25.3982 24.3848 25.4917C24.265 25.5852 24.168 25.7048 24.1013 25.8414C24.0347 25.978 24 26.128 24 26.28Z" stroke="#0DA0EA" stroke-width="2" stroke-linecap="round" stroke-linejoin="round"/>
</svg>
