<svg width="64" height="64" viewBox="0 0 64 64" fill="none" xmlns="http://www.w3.org/2000/svg">
<rect x="8" y="8" width="48" height="48" rx="24" fill="#0178BC" fill-opacity="0.13"/>
<rect x="4" y="4" width="56" height="56" rx="28" stroke="#0178BC" stroke-opacity="0.06" stroke-width="8"/>
<path d="M31 29H42M22 31L24.807 27.843C25.1823 27.4207 25.6428 27.0827 26.1581 26.8512C26.6735 26.6197 27.232 26.5 27.797 26.5H28M22 39.5H27.5L31.5 36.5C31.5 36.5 32.31 35.953 33.5 35C36 33 33.5 29.834 31 31.5C28.964 32.857 27 34 27 34" stroke="#0DA0EA" stroke-width="1.5" stroke-linecap="round" stroke-linejoin="round"/>
<path d="M28 33.5V27C28 26.4696 28.2107 25.9609 28.5858 25.5858C28.9609 25.2107 29.4696 25 30 25H40C40.5304 25 41.0391 25.2107 41.4142 25.5858C41.7893 25.9609 42 26.4696 42 27V33C42 33.5304 41.7893 34.0391 41.4142 34.4142C41.0391 34.7893 40.5304 35 40 35H33.5" stroke="#0DA0EA" stroke-width="1.5"/>
</svg>
