<svg width="155" height="50" viewBox="0 0 155 50" fill="none" xmlns="http://www.w3.org/2000/svg">
<path fill-rule="evenodd" clip-rule="evenodd" d="M0.0802231 5.27803C-0.0739288 6.14068 0.0235879 27.5565 0.126731 29.7428C0.275257 32.8952 1.7894 36.4602 4.07392 38.0794C4.90769 38.6705 5.57568 39.2166 6.42858 39.8294L13.6287 44.9243C14.3796 45.4708 15.2359 46.1032 16.0089 46.6448C16.8697 47.2482 20.2149 49.7736 20.872 50.0001C21.5115 49.7255 22.6014 48.8393 23.2368 48.3858L35.24 39.8846C36.9252 38.6626 38.5008 37.5813 39.545 35.9884C42.3524 31.7055 41.6551 27.3791 41.678 21.6785C41.6997 16.287 41.8205 6.36391 41.678 1.0001L31.5 0.5C30.2552 0.142188 21.5066 0.0147395 20.8724 0.000111914C20.4328 -0.0103899 0.644322 0.721047 0.0802231 1.0001V5.27803ZM5.28163 6C5.00183 10.2716 5.28051 22.8885 5.28163 28.0269C5.28238 32.6766 6.4147 33.4297 9.88894 35.8354L20.8724 43.5433C21.2437 43.5317 27.4184 38.903 28.194 38.3873C29.7742 37.3364 34.3586 34.2818 35.2779 33.0419C37.0238 30.6853 36.4454 25.2859 36.4424 21.8105C36.4402 19.7642 36.5846 7.18483 36.4424 6C34.3485 5.44003 21.9642 5.38793 20.8709 5.3868C19.9321 5.3853 5.7906 5.66357 5.28163 6Z" fill="#0DA0EA"/>
<path fill-rule="evenodd" clip-rule="evenodd" d="M7.90151 11.2216C7.73723 12.4886 7.8865 23.1888 7.87938 25.5138C7.87375 27.4207 7.87939 30 8.73002 31.8348C9.12797 32.2264 20.1838 40.8402 20.8728 41C20.8915 39.5669 33.8647 28.2653 33.8467 26.8314L13.5 26C13.2847 26.2344 13.5761 25.4119 13.5 26C13.5 27 31.3015 27.0512 33.8467 26.8314V8.00001C31.6499 7.57244 21.5768 7.98176 20.8701 7.98176C20.0293 7.98214 16 8.00001 14.5 7.98176C12 8.00002 9.99999 8.00001 7.99999 8.00001L7.90151 11.2216ZM13.0834 15.3233C14.0785 15.5131 27.0302 15.4643 28.6783 15.3578C27.5276 14.928 21.9425 13.4506 20.8728 13.4461C19.9944 13.4427 13.784 15.0187 13.0834 15.3233Z" fill="#59637A"/>
<path d="M52.8967 31.4697H48.5397L55.1784 12.239H60.418L67.0473 31.4697H62.6904L57.8733 16.6335H57.7231L52.8967 31.4697ZM52.6243 23.9107H62.9157V27.0845H52.6243V23.9107ZM72.6296 17.0467L75.2776 22.0891L77.9913 17.0467H82.0947L77.9162 24.2582L82.2074 31.4697H78.1228L75.2776 26.4836L72.4794 31.4697H68.3478L72.6296 24.2582L68.4981 17.0467H72.6296ZM92.142 17.0467V20.0515H83.4563V17.0467H92.142ZM85.4282 13.5912H89.4283V27.0376C89.4283 27.4069 89.4846 27.6949 89.5973 27.9015C89.71 28.1018 89.8665 28.2426 90.0668 28.324C90.2734 28.4054 90.5112 28.4461 90.7804 28.4461C90.9682 28.4461 91.156 28.4304 91.3438 28.3991C91.5316 28.3616 91.6756 28.3334 91.7758 28.3146L92.4049 31.2912C92.2046 31.3538 91.9229 31.4258 91.5598 31.5072C91.1967 31.5948 90.7554 31.6481 90.2358 31.6668C89.2718 31.7044 88.4267 31.5761 87.7005 31.2819C86.9806 30.9876 86.4204 30.5307 86.0197 29.9109C85.6191 29.2912 85.4219 28.5087 85.4282 27.5634V13.5912ZM94.7477 31.4697V17.0467H98.6257V19.5632H98.776C99.0389 18.668 99.4802 17.9919 100.1 17.535C100.72 17.0717 101.433 16.8401 102.241 16.8401C102.441 16.8401 102.657 16.8526 102.889 16.8777C103.12 16.9027 103.324 16.9371 103.499 16.9809V20.5304C103.311 20.474 103.052 20.4239 102.72 20.3801C102.388 20.3363 102.084 20.3144 101.809 20.3144C101.22 20.3144 100.695 20.4427 100.231 20.6994C99.7744 20.9498 99.4114 21.3003 99.1422 21.751C98.8793 22.2018 98.7478 22.7213 98.7478 23.3098V31.4697H94.7477ZM109.267 31.742C108.347 31.742 107.527 31.5823 106.807 31.2631C106.087 30.9376 105.517 30.4587 105.098 29.8264C104.685 29.1879 104.478 28.3929 104.478 27.4414C104.478 26.6401 104.625 25.9671 104.919 25.4225C105.214 24.8779 105.614 24.4397 106.121 24.1079C106.628 23.7761 107.204 23.5257 107.849 23.3567C108.5 23.1877 109.182 23.0688 109.896 22.9999C110.735 22.9123 111.411 22.8309 111.924 22.7558C112.438 22.6744 112.81 22.5555 113.042 22.399C113.273 22.2425 113.389 22.0108 113.389 21.7041V21.6478C113.389 21.0531 113.201 20.593 112.826 20.2674C112.456 19.9419 111.931 19.7792 111.248 19.7792C110.528 19.7792 109.955 19.9388 109.53 20.258C109.104 20.571 108.822 20.9654 108.685 21.4412L104.985 21.1407C105.173 20.2643 105.542 19.5068 106.093 18.8683C106.644 18.2236 107.354 17.729 108.225 17.3847C109.101 17.0342 110.115 16.8589 111.267 16.8589C112.068 16.8589 112.835 16.9528 113.568 17.1406C114.306 17.3284 114.96 17.6195 115.53 18.0138C116.106 18.4082 116.56 18.9153 116.892 19.535C117.223 20.1485 117.389 20.884 117.389 21.7417V31.4697H113.596V29.4696H113.483C113.251 29.9203 112.942 30.3178 112.553 30.6621C112.165 31.0002 111.699 31.2662 111.154 31.4603C110.61 31.6481 109.981 31.742 109.267 31.742ZM110.412 28.9813C111.001 28.9813 111.52 28.8655 111.971 28.6339C112.422 28.396 112.776 28.0767 113.032 27.6761C113.289 27.2755 113.417 26.8216 113.417 26.3146V24.784C113.292 24.8654 113.12 24.9405 112.901 25.0094C112.688 25.072 112.447 25.1314 112.178 25.1878C111.909 25.2378 111.639 25.2848 111.37 25.3286C111.101 25.3662 110.857 25.4006 110.638 25.4319C110.168 25.5008 109.758 25.6103 109.408 25.7606C109.057 25.9108 108.785 26.1142 108.591 26.3709C108.397 26.6213 108.3 26.9343 108.3 27.3099C108.3 27.8545 108.497 28.2708 108.891 28.5588C109.292 28.8405 109.799 28.9813 110.412 28.9813ZM127.009 31.7513C125.532 31.7513 124.261 31.4384 123.197 30.8124C122.139 30.1801 121.325 29.3037 120.756 28.1832C120.192 27.0626 119.91 25.7731 119.91 24.3145C119.91 22.8372 120.195 21.5413 120.765 20.4271C121.341 19.3065 122.158 18.4333 123.216 17.8073C124.274 17.175 125.532 16.8589 126.99 16.8589C128.249 16.8589 129.35 17.0874 130.296 17.5443C131.241 18.0013 131.989 18.643 132.54 19.4693C133.091 20.2956 133.394 21.2659 133.451 22.3802H129.676C129.57 21.6603 129.288 21.0812 128.831 20.643C128.38 20.1986 127.789 19.9763 127.056 19.9763C126.436 19.9763 125.895 20.1454 125.432 20.4834C124.975 20.8152 124.618 21.3003 124.361 21.9388C124.105 22.5774 123.976 23.3505 123.976 24.2582C123.976 25.1784 124.101 25.9609 124.352 26.6057C124.609 27.2504 124.968 27.7418 125.432 28.0799C125.895 28.4179 126.436 28.5869 127.056 28.5869C127.513 28.5869 127.923 28.493 128.286 28.3052C128.656 28.1174 128.959 27.8451 129.197 27.4883C129.441 27.1252 129.601 26.6902 129.676 26.1831H133.451C133.388 27.2849 133.088 28.2552 132.549 29.094C132.017 29.9266 131.282 30.5776 130.343 31.0471C129.404 31.5166 128.293 31.7513 127.009 31.7513ZM143.683 17.0467V20.0515H134.998V17.0467H143.683ZM136.97 13.5912H140.97V27.0376C140.97 27.4069 141.026 27.6949 141.139 27.9015C141.251 28.1018 141.408 28.2426 141.608 28.324C141.815 28.4054 142.053 28.4461 142.322 28.4461C142.51 28.4461 142.697 28.4304 142.885 28.3991C143.073 28.3616 143.217 28.3334 143.317 28.3146L143.946 31.2912C143.746 31.3538 143.464 31.4258 143.101 31.5072C142.738 31.5948 142.297 31.6481 141.777 31.6668C140.813 31.7044 139.968 31.5761 139.242 31.2819C138.522 30.9876 137.962 30.5307 137.561 29.9109C137.161 29.2912 136.963 28.5087 136.97 27.5634V13.5912Z" fill="#59637A"/>
</svg>
