<svg width="24" height="25" viewBox="0 0 24 25" fill="none" xmlns="http://www.w3.org/2000/svg">
<path d="M2.25 3.28858V21.7105C2.25012 21.7504 2.26204 21.7895 2.28427 21.8227C2.30649 21.8559 2.33803 21.8818 2.37492 21.8972C2.41182 21.9126 2.45243 21.9167 2.49166 21.9091C2.5309 21.9015 2.56701 21.8824 2.59547 21.8544L12.1875 12.5L2.59547 3.14467C2.56701 3.11661 2.5309 3.09758 2.49166 3.08996C2.45243 3.08234 2.41182 3.08648 2.37492 3.10184C2.33803 3.11721 2.30649 3.14313 2.28427 3.17635C2.26204 3.20957 2.25012 3.24861 2.25 3.28858ZM16.2094 8.65624L4.18219 2.02999L4.17469 2.02577C3.9675 1.91327 3.77062 2.19358 3.94031 2.35671L13.3683 11.3717L16.2094 8.65624ZM3.94125 22.6433C3.77062 22.8064 3.9675 23.0867 4.17562 22.9742L4.18312 22.97L16.2094 16.3437L13.3683 13.6273L3.94125 22.6433ZM21.0647 11.3281L17.7061 9.47842L14.5481 12.5L17.7061 15.5201L21.0647 13.6719C21.9783 13.167 21.9783 11.833 21.0647 11.3281Z" fill="#082D49"/>
</svg>
