<svg width="24" height="25" viewBox="0 0 24 25" fill="none" xmlns="http://www.w3.org/2000/svg">
<g clip-path="url(#clip0_939_21279)">
<path d="M13.064 7.185L13.809 6.879C14.414 6.639 15.196 6.394 16.119 6.549C18.01 6.867 19.314 7.888 20.091 9.242C20.391 9.764 20.149 10.452 19.589 10.671C19.1092 10.8587 18.6991 11.1899 18.4147 11.6194C18.1304 12.049 17.9855 12.5558 18.0001 13.0708C18.0146 13.5857 18.1879 14.0836 18.496 14.4964C18.8042 14.9092 19.2324 15.2167 19.722 15.377C20.24 15.547 20.532 16.122 20.362 16.64C19.92 17.982 19.284 19.221 18.531 20.221C17.787 21.209 16.879 22.029 15.868 22.43C15.208 22.69 14.5 22.593 13.823 22.425L13.421 22.318L12.824 22.145C12.553 22.066 12.274 21.998 12 21.998C11.725 21.998 11.447 22.066 11.176 22.145L10.579 22.318L10.177 22.425C9.49996 22.593 8.79096 22.691 8.13196 22.43C6.85896 21.926 5.73596 20.75 4.88696 19.363C3.96783 17.8356 3.36141 16.1408 3.10296 14.377C2.87596 12.823 2.99896 11.078 3.71796 9.602C4.45796 8.081 5.81396 6.897 7.88096 6.549C8.72096 6.408 9.44296 6.597 10.021 6.814L10.352 6.944L10.936 7.185C11.336 7.342 11.651 7.434 12 7.434C12.348 7.434 12.664 7.342 13.064 7.185ZM11.768 3.268C12.744 2.291 14.243 2.207 14.596 2.561C14.95 2.914 14.866 4.413 13.889 5.389C12.913 6.365 11.414 6.449 11.061 6.096C10.707 5.743 10.791 4.244 11.768 3.268Z" fill="#082D49"/>
</g>
<defs>
<clipPath id="clip0_939_21279">
<rect width="24" height="24" fill="white" transform="translate(0 0.5)"/>
</clipPath>
</defs>
</svg>
